<?xml version="1.0" standalone="no"?>
<!DOCTYPE svg PUBLIC "-//W3C//DTD SVG 20010904//EN"
 "http://www.w3.org/TR/2001/REC-SVG-20010904/DTD/svg10.dtd">
<svg version="1.0" xmlns="http://www.w3.org/2000/svg"
 width="1024.000000pt" height="1024.000000pt" viewBox="0 0 1024.000000 1024.000000"
 preserveAspectRatio="xMidYMid meet">

<g transform="translate(0.000000,1024.000000) scale(0.100000,-0.100000)"
fill="#000000" stroke="none">
<path d="M2523 8000 c-234 -107 -718 -620 -701 -743 2 -16 435 -447 1376
-1366 l1372 -1343 0 -1674 0 -1675 43 -19 c79 -35 333 -70 506 -70 187 0 423
33 509 70 l42 19 0 1674 0 1675 1306 1278 c719 704 1338 1308 1377 1344 68 64
70 66 63 103 -22 119 -351 487 -584 653 -83 60 -168 99 -192 88 -10 -5 -581
-559 -1270 -1232 l-1252 -1222 -112 107 c-62 60 -629 612 -1260 1228 -631 616
-1155 1121 -1164 1122 -9 2 -36 -6 -59 -17z"/>
</g>
</svg>
